<svg id="Layer_1" data-name="Layer 1" xmlns="http://www.w3.org/2000/svg" viewBox="0 0 1024 1024"><g id="Shopping_Cart" data-name="Shopping Cart"><path d="M368.56,646.66,270.71,657.9V316.68c-.16-36.43-33.8-65.61-75.83-65.78H74.24C47.6,250.9,26,269.66,26,292.77s21.6,41.85,48.24,41.85h100V765.21C174.39,801.67,208,830.85,250,831H949.76C976.4,831,998,812.25,998,789.14s-21.6-41.85-48.24-41.85l-679,0v-29l623.63-71.63c33.35-4.64,56.35-27.41,57.29-56.69V411.39c-.14-29.82-27.71-53.71-62-53.83l-6.9,230L771.06,600.43Z"/><path d="M393.67,839C341,839,298.3,876,298.3,921.7s42.69,82.73,95.37,82.73S489,967.39,489,921.7,446.33,839,393.67,839Z"/><path d="M853.26,839c-52.68,0-95.37,37-95.37,82.72s42.69,82.73,95.37,82.73,95.36-37,95.36-82.73S905.92,839,853.26,839Z"/><polygon points="581.58 420.45 406.89 469.5 189.95 68.62 364.65 19.57 581.58 420.45"/><polygon points="719.29 458.78 544.6 507.82 523.66 469.15 640.09 436.46 444.08 74.27 502.35 57.9 719.29 458.78"/><polygon points="857 497.1 682.31 546.14 661.37 507.47 777.79 474.78 581.79 112.59 640.05 96.22 857 497.1"/></g></svg>