<svg xmlns="http://www.w3.org/2000/svg" width="633" height="90">
    <path d="M164.876 31.062l6.175 22.163 8.75-22.163h7.35l8.325 22.163 6.562-22.163h8.75l-12.987 39.125h-7.825l-8.887-24.012-9.2 24.012h-7.825l-12.988-39.125zm57.275 19.625c0-12.037 9.212-20.15 23.387-20.15 11.85 0 22.95 5.388 22.95 19.5 0 12.15-8.388 20.75-23.525 20.75-16.9 0-22.825-10.787-22.825-20zm14.25.175c0 8.413 1.95 13.4 8.887 13.4 2.075 0 8.95.3 8.95-14.337 0-9.9-3.212-12.988-8.75-12.988-7.125 0-9.075 5.388-9.075 13.875zm46.5-.175c0-12.037 9.2-20.15 23.387-20.15 11.85 0 22.95 5.388 22.95 19.5 0 12.15-8.388 20.75-23.525 20.75-16.9 0-22.825-10.787-22.825-20zm14.25.175c0 8.413 1.95 13.4 8.887 13.4 2.075 0 8.95.3 8.95-14.337 0-9.9-3.213-12.988-8.75-12.988-7.125 0-9.075 5.388-9.075 13.875zm64.211-19.8c7.375 0 14 0 20 3.613 7 4.15 7.5 12.087 7.5 14.762 0 2.963-.313 12.75-10.15 17.787-4.725 2.425-9.012 2.963-18.225 2.963h-14.312V31.062zm-1.825 6.638v25.85h2.838c4.85 0 12.425 1.012 12.425-13.925 0-11.913-5.988-11.913-11.663-11.913zm54.875-6.638l6.175 22.163 8.75-22.163h7.375l8.324 22.163 6.563-22.163h8.75L447.36 70.187h-7.812l-8.887-24.012-9.213 24.012h-7.825l-12.987-39.125zm79.95 0l19.361 39.125h-14.312l-3.662-8.175h-15.513l-3.75 8.175h-9.2l19.363-39.125zm-11.35 24.775h10l-5-11.087zm63.036-24.775c6.175 0 9.838 0 14 1.188 3.975 1.062 7.887 4.037 7.887 9.187 0 6.813-6.75 9.363-9.837 10.488l14.312 18.262h-15.324l-10.4-15.65h-3.538v15.65h-13.362V31.062zm-2.9 6.638v10.912h2.213c2.137 0 9.012.65 9.012-5.687 0-5.213-4.6-5.213-9.012-5.213zm62.325-6.638c7.375 0 14 0 20 3.613 7 4.15 7.5 12.087 7.5 14.762 0 2.963-.313 12.75-10.15 17.787-4.725 2.425-9.013 2.963-18.225 2.963h-14.313V31.062zm-1.825 6.638v25.85h2.837c4.85 0 12.425 1.012 12.425-13.925 0-11.913-5.987-11.913-11.662-11.913z" fill="#6d6e71"/>
    <path d="M1.603 69.424c0 6.063 7.737 11.513 20 15.288-1.45-6-4.738-16.525-8.338-27.425-7.362 3.4-11.662 7.6-11.662 12.137zm54.224-58.1c-4.062 18.388-9.125 35.9-13.662 54.213-4.088-15.325-8.513-30.65-12.5-47.775l-15.388-3.25-14.25 4.125 14.025 2.95c8 21.363 15.988 50 20 66.037A164.374 164.374 0 0 0 62.39 90c33.587 0 60.812-9.225 60.812-20.6 0-9.3-18.175-17.15-43.15-19.712 3.75-15.65 7.787-31.325 12.037-47.337L77.277 0l-6.25 1.45L85.902 3.9c-3.175 16.775-7.088 33.425-10.988 50-3.287-14.4-7.912-28.575-11.25-44.463l-15.137-2.85-7.925 1.825zm53.075 56.9c-.2 1.988-1.6 3.875-3.963 5.6-6.612 5.263-22.1 9.013-40.15 9.013-5.45 0-13.75-.5-18.4-.888 1.75-6.137 11.938-41.85 11.663-42.412 1.763 5.888 7.063 22.962 10.088 33.887l7.087-2.987q1.837-8.163 3.75-16.25a94.587 94.587 0 0 1 10.462 1.788c12.175 2.462 20 7.037 19.463 12.25z" fill="#910028"/>
</svg>
